# xmcd
# 
# Track frame offsets:
#     150
#     9226
#     22290
#     36994
#     51432
#     65143
#     84342
#     99187
#     112855
#     124754
#     138206
#     152654
#     162676
#     176199
#     188392
#     202224
#     214932
#     231558
#     249127
# 
# Disc length: 3618
# 
# Revision: 0
# Processed by: cddbd v1.5.2PL0 Copyright (c) Steve Scherf et al.
# Submitted via: BonkEnc v1.0
# 
DISCID=0b0e2013
DTITLE=Ray Charles - Ultimate Hits Collection [CD2)
DYEAR=1999
DGENRE=R&B
TTITLE0=Hit The Road Jack
TTITLE1=Unchain My Heart
TTITLE2=But On The Other Hand Baby
TTITLE3=Hide 'Nor Hair
TTITLE4=At The Club
TTITLE5=I Can't Stop Loving You
TTITLE6=You Don't Know Me
TTITLE7=You Are My Sunshine
TTITLE8=Don't Set Me Free
TTITLE9=Take These Chains From My Heart
TTITLE10=No One
TTITLE11=Busted
TTITLE12=Crying Time
TTITLE13=Together Again
TTITLE14=Let's Go Get Stoned
TTITLE15=Yesterday
TTITLE16=America The Beautiful
TTITLE17=Seven Spanish Angels (with Willie Nelson)
TTITLE18=I'll Be Good To You (with Quincy Jones and Chaka Khan)
EXTD=
EXTT0=
EXTT1=
EXTT2=
EXTT3=
EXTT4=
EXTT5=
EXTT6=
EXTT7=
EXTT8=
EXTT9=
EXTT10=
EXTT11=
EXTT12=
EXTT13=
EXTT14=
EXTT15=
EXTT16=
EXTT17=
EXTT18=
PLAYORDER=
